<svg version="1.1" id="Layer_1" xmlns="http://www.w3.org/2000/svg" x="0" y="0" viewBox="0 0 230 55" xml:space="preserve"><style>.st1{fill:#333}</style><path d="M48 27.4c-1.2-3.1-5.5-4.5-8.4-5.2 2.1-1.3 5.2-.6 7.2-2.2s1.7-4.9-1.1-5.4c.4-1.9.2-4.5-1.7-5.8-2-1.4-4.7-1-6.7 0-3.4 1.8-6.3 5.1-8 8.5.7-3.3 1.2-6.7.9-10.1-.3-2.9-1.5-6.4-4.7-7.2-3.3-.8-4.6 3-4.8 5.6-.1 3.3.4 6.6 1.5 9.7-3.2-2-6.9-3.5-10.6-4.2-1.3-.1-3.2-.1-4 1.4-.8 1.6.7 3.2 1.9 4h-.1c1.2 1 2.8 1.6 4.3 2.1-1.4-.1-2.9.4-3.3 2-.3 1.3.3 2.8 1.5 3.5-1.6.4-3.1.9-4.7 1.4-1.2.4-2.8.9-3.3 2.2-1.6 3.3 4.5 2.8 6 2.6-1.8 1.6-3.4 5-.9 6.9 2.3 1.6 5.8.2 7.9-.9-.7 1.6-2.6 5.2-.2 6.2 1.3.5 2.8-.4 3.8-1.2 1.4-1.1 2.6-2.4 3.5-3.9-.1 2.9-.1 9.7 4.7 8.5 4.3-1.1 3.1-6.7 2.3-9.8.9 1.5 1.8 2.9 2.9 4.2.9 1.1 2.6 2.8 4.2 2.1 1.7-.7 1.4-3.2 1-4.7-.6-2-1.4-4-2.3-5.9 2.4 1.2 4.9 2.5 7.6 1.8 2.6-1 4.7-3.5 3.6-6.2z" fill="#9cc5ca"/><path class="st1" d="M82.3 18.3c-.8.6-2.9 1.2-2.3 2.7.4 1 2.1.4 2.8 0 2.4-1 5-3.2 4.1-6.1-1-3.1-5-3.4-7.7-3.3-3.5.1-7.1.6-10.5 1.4-3.3.7-6.8 1.7-9.8 3.4-2.3 1.4-5.7 4.3-4.4 7.4 1.1 2.8 5.4 3.8 8 4.3 3.5.8 7 1.2 10.5 2.1 1.8.4 7.2 1.6 5.2 4.6-.7 1.1-2.3 1.5-3.5 1.8-1.7.3-3.3.4-5 .4s-3.4-.2-5.1-.5c-1.8-.3-3.5-1-5.2-1.3-1.5-.3-1.6 1.5-.7 2.3 1.1 1 3.1 1.3 4.5 1.6 3.6.8 7.3 1 11 .6 3.1-.3 6.6-.9 8.9-3.1 2-1.8 2.4-4.9.2-6.7-2.4-2.1-5.9-2.8-9-3.4-3.6-.8-7.3-1.3-10.7-2.5-1-.4-2.4-.8-3-1.8-.7-1.3.3-2.6 1.3-3.3 2.6-1.9 6-2.6 9.1-3.1 3.4-.5 7-1.1 10.4-.3.6.1 1.3.3 1.7.8.3.8-.2 1.6-.8 2z"/><path class="st1" d="M97.7 28.8c-2.4-2.2-6.3-2.5-9-.6-.1-.7 0-1.1-.8-1.3-.6-.1-1.6-.1-1.9.5-.2.5-.2 1.3-.2 1.8-.1.8-.1 1.7-.2 2.5-.2 3.8-.4 7.7-.2 11.5.1 2.1.1 4.2.2 6.3.1.9.1 1.8.2 2.8.1.6 0 1.6.4 2 .7.8 2.9 1.2 3.4-.1.2-.5.1-1.4.1-2v-1.8c0-3.8-.1-7.6-.3-11.4 3 1.6 6.9.9 9.1-1.7 2-2.6 1.7-6.3-.8-8.5zm-2.3 6c-.7 1.8-2.5 2.7-4.3 1.9-1.8-.8-2.3-3-1.7-4.7.6-1.6 2.4-2.6 4.1-2.1 1.9.6 2.6 3.1 1.9 4.9z"/><path class="st1" d="M112.5 28.8c-2.7-2.5-7.3-2.5-10 0s-2.7 6.7 0 9.2c2.7 2.5 7.3 2.5 10 0s2.7-6.7 0-9.2zm-2.3 6c-.5 1.5-2.2 2.8-3.8 1.9-1.6-.9-2.1-3-1.6-4.7.5-1.6 2.2-2.7 3.8-1.9 1.7.9 2.2 3 1.6 4.7z"/><path class="st1" d="M127.4 28.8c-2.7-2.5-7.3-2.5-10 0s-2.7 6.7 0 9.2c2.7 2.5 7.3 2.5 10 0s2.7-6.7 0-9.2zm-2.3 6c-.6 1.5-2.2 2.8-3.8 1.9s-2.1-3-1.6-4.7c.5-1.6 2.2-2.7 3.8-1.9 1.6.9 2.1 3 1.6 4.7z"/><path class="st1" d="M175.6 28.8c-4.3-3.9-12.7-1.2-12 5.2.1.7-.2 1-.6 1.5-.4.5-.9 1-1.4 1.4-1.5.9-1.7-1-1.7-2.1-.1-1.9 0-3.9.1-5.8.1-3.9.3-7.7.3-11.6 0-1.2 0-2.4-.1-3.6-.1-1 0-1.7-1.2-2-.8-.2-2.2.3-2.5 1.1-.4 1.2-.3 2.9-.3 4.1-.1 3.1-.1 6.2-.1 9.2 0 2.6 0 5.2.3 7.7 0 .3.2.7.1 1 0 .6.2.1-.3.6-.4.5-1.2.8-1.7 1-1.4.4-2.6-.1-3.2-1.5-.8-1.8-.6-4.1-.5-6 .1-3.1.4-6.3.7-9.4.1-1.3.3-2.7.4-4 .1-.9.6-2.4.1-3.2s-1.8-.9-2.7-.7c-1.4.3-1.3 1.2-1.4 2.4l-.6 8.4c-.2 3.4-.3 6.9-.3 10.3 0 .7.2 1.8 0 2.5-.2.5-1.1 1.3-1.6 1.6-1.6.9-1.8-1.2-1.9-2.3-.1-2.4.6-8-3.2-7.7-3.1.3-5.2 4.1-6.3 6.6.1-1.9.2-3.7.1-5.6-.1-.9-.4-.9-1.2-1-.6-.1-1.4 0-2 .2-.7.3-.6 1.1-.7 1.8-.1.9-.2 1.8-.2 2.8 0 1.9.1 3.8.4 5.7.1.5.1 1.7.4 2.1.3.4 1.4.3 1.9.3.8-.1.8-.3 1-1 .3-.9.7-1.8 1.1-2.7.7-1.6 1.5-3.5 2.8-4.7.4-.4 1.2-.9 1.7-.3.4.6.3 1.8.4 2.5.1 1.9 0 4.4 1.9 5.6 1.7 1.1 4 .4 5.4-.9.1 3.2.3 6.5.8 9.7.5 2.7 1.4 6.2 4.4 6.8 1.6.3 2.9.1 3.9-1.3.9-1.3 1.3-2.9 1.4-4.5.2-3.6-1.4-6.9-3.5-9.8 1.2-.3 2.2-1.1 3.1-1.9.6 1.5 1.8 2.6 3.5 2.2 1.7-.3 2.9-1.7 3.8-3 2.2 3.4 7.2 4 10.4 1.7 3.4-2 3.8-6.7.8-9.4zm-20.9 16.7c.3 1.1.4 2.2.4 3.3 0 .8.1 2-.5 2.6-1.2 1.4-2.4-.8-2.7-1.7-1-3.4-1-7.3-1.1-10.8 1.9 1.9 3.2 4.1 3.9 6.6zm18.6-10.7c-.5 1.6-2.2 2.8-3.8 1.9s-2.1-3.1-1.5-4.7c.5-1.6 2.2-2.7 3.8-1.9 1.6.9 2.1 3 1.5 4.7zm27.2-7.9c-1 0-1.6 0-1.8 1.1-.1 1.4-.4 2.8-.7 4.2-.3 1.4-2 7.3-3.8 3.8-.6-1.3-.9-2.8-1.2-4.2-.2-1.3-.2-2.8-.6-4.1-.3-1-1.5-.8-2.3-.8-.8 0-1.8-.1-2 .8-.5 2.7-.6 5.6-1.9 8.1-.6 1.2-1.6 1.8-2.4.4-.7-1.2-1-2.7-1.2-4.1-.3-1.4-.4-2.8-.6-4.2-.2-1.2-1.4-1.1-2.5-1.1-.4 0-1.2 0-1.5.3-.3.3-.2.7-.2 1 .1 1.4.3 2.8.6 4.2.6 2.7 1.8 6.8 4.9 7.4 3.3.7 5.2-3 6.1-5.6.6 2 1.6 4.4 3.6 5.3 2.1 1 4.2-.3 5.3-2.1 1.3-1.9 1.9-4.2 2.4-6.4.3-.7 1.4-4-.2-4zm29 5.2c-.4-1.2-1 .4-1.3.8-.5.9-1.1 1.8-1.7 2.6-.4.5-1.2 1.5-1.9 1.6-.9.1-.7-.9-.5-1.5.5-1.7 1.9-3.5 1.8-5.3 0-1.5-1.2-2-2.5-2.1-.8 0-1.5 0-2.3-.1-.4 0-.8-.1-1.2-.2-.2 0-.4-.1-.6-.2-.4-.2-.2-.2-.3-.5-.2-.8-.2-1.7-.9-2.3-.6-.5-1.5-.5-2.1.1-1.1 1-.9 2.9-.1 4.1.2.2.6.5.7.7.2.3-.1.8-.3 1.2-.4.9-.8 1.8-1.3 2.6-1 1.6-2.4 2.8-4.3 3.2-2 .4-4.5 0-5-2.3 3 1 8.3.4 7.9-3.8-.3-3.9-5.6-4.3-8.4-3-3.3 1.5-4.9 5.5-3.1 8.7 1.7 3 6 4.3 9.2 3.2 1.9-.7 3.4-2.1 4.5-3.7 1-1.5 2-3.3 2.4-5 .8.4 1.9.4 2.8.5 1.1.2.4 1 .1 1.7-.8 1.9-1.9 4.5 0 6.1 1.8 1.5 4.3.6 5.8-.8 1.5-1.6 3.3-4.1 2.6-6.3zm-23.5-.4c.5-1 1.4-1.9 2.6-1.9 1.1 0 2.4.9 1.8 2.2-.5.9-1.8 1.1-2.7 1.1h-1.4c-.5-.1-.5 0-.6-.5 0-.2.2-.6.3-.9zm-158.7-2c-1.4-3.2-5.9-4.5-9-5.3 1.2-.7 2.7-.8 4-1.1 1.1-.3 2.3-.5 3.3-1.1 1.1-.8 1.9-2.1 1.6-3.5-.1-.6-.4-1.2-.9-1.6-.3-.2-.6-.4-.9-.5-.1 0-.3-.1-.4-.1-.3-.2-.2 0-.2-.5 0-1.5.2-2.8-.6-4.1-.8-1.4-2.2-2.1-3.7-2.4-3.1-.5-5.9 1.3-8.1 3.3-1.9 1.8-3.8 3.9-5 6.3.7-3.5 1.1-7.1.6-10.6-.4-2.8-1.8-5.9-4.7-6.9C19.8.5 18.1 4 17.8 6.9c-.3 3.5.5 7.2 1.7 10.4-2.2-1.2-4.5-2.3-6.9-3-2-.6-4.6-1.6-6.8-1.1S3 16 4.5 17.7c1.4 1.6 3.7 2.5 5.7 3.2-1.2 0-2.4.4-3 1.5-.8 1.5-.1 3.4 1.3 4.2-1.7.5-3.4 1-5.1 1.6-1.3.5-3.1 1.2-3.4 2.7-.6 3.1 4.9 2.5 6.5 2.3-1.8 1.7-3.3 5.2-.8 7.1 2.4 1.7 6.2.3 8.4-1-.7 1.7-2.6 5.3-.1 6.3 1.4.6 3.1-.4 4.2-1.2 1.4-1.1 2.6-2.5 3.6-4 0 3 0 8.9 4.4 8.7 2-.1 3.6-1.7 4-3.7.4-2-.2-4.4-.7-6.4.9 1.5 2 3 3.2 4.2 1.1 1.1 3 2.8 4.7 1.8 1.5-.9 1.2-3.2.8-4.7-.6-2.1-1.6-4.2-2.6-6.1 1 .7 2.4 1.1 3.6 1.5 1.4.4 2.8.6 4.3.2 2.6-.5 5.1-3.2 3.8-6.2zM26 47.6c-3.3 0-3.2-5.3-3.3-7.5 0-.4-.1-.8 0-1.2.1-.4.4-.8.6-1.2.4-.8.7-1.6.9-2.4.6-1.8 1-3.7 1.2-5.5 1.1 3.1 2.1 6.3 2.8 9.6.5 2.3 1.8 8.2-2.2 8.2zM21.7 20c1 .6 1.9 1.3 2.8 2 .3.3 1.1.7.7 1.2-.2.3-.2.2-.5.2-.7 0-1.1-.1-1.5-.6-.5-1-1.1-1.8-1.5-2.8zm-8.9 10.6c2.4-1 5.4-2.1 8-2.1-.4.5-1.4.7-2 .9-.8.3-1.6.5-2.4.8-1.7.5-3.5.9-5.3 1.2.6-.3 1.1-.6 1.7-.8zm7.8 2.1c-1.2 1.5-2.6 2.9-4.2 4 .9-1.8 2-3.4 3.1-5 1-1.4 2-2.8 3.7-3.3-.7 1.5-1.6 3-2.6 4.3zm-2.2-5c-.9.1-2-.1-2.8-.2-1.2-.2-2.4-.4-3.5-.8 3.2-.9 6.4-1.6 9.7-2 .6-.1 1.2-.3 1.7.2.5.6.1.8-.4 1.2-.2.2-.5.7-.8.8-.3.2-1 .2-1.4.3-.8.1-1.6.3-2.5.5zm5.8 1.8c.1-.3.2-1.5.7-1.2.5.3-.1 2.3-.2 2.7-.4 2-1 4-1.9 5.8.1-2.5.5-4.9 1.4-7.3zm1.8-10c-.1.7-.3 1.5-.4 2.2-.7-.6-1.5-1.2-2.2-1.8-.4-.3-.8-.6-1.2-.8-.3-.2-1-.5-1.2-.8-.5-.6-.7-2-.9-2.7-.2-.8-.4-1.7-.6-2.5-.5-2.7-1.4-7.8 1.2-9.8 1.4-1 3-.1 4 1 1.1 1.3 1.6 2.9 1.8 4.5.4 3.5 0 7.2-.5 10.7zm-5.5 3.1c-3.3-.6-6.6-1.4-9.8-2.7-.9-.4-7.5-3.5-5.2-4.9 1.2-.7 3.1-.2 4.4.1 1.7.4 3.4.9 5 1.5s3.2 1.3 4.7 2.1c.4.2.5.3.8.7.2.3.4.8.5 1.2.4.8.8 1.6 1.3 2.4-.6-.2-1.2-.3-1.7-.4zm-9.3-.6c3.5 0 7.1.8 10.3 2-3.4.4-6.8 1-10.1 1.9-.4.1-.7.2-1.1.1-.3-.1-.6-.3-.8-.5-.5-.4-.9-.8-1-1.5-.2-1.8 1.3-2 2.7-2zm-1.1 5.2c2 .7 4.1.9 6.2 1.1-2.1.6-4.3 1.4-6.3 2.5-.4.2-.8.4-1.2.7-.5.3-1 .4-1.6.4-1.1.1-2.3.3-3.4.2-.6 0-2.3 0-2.5-.7-.2-.7 1.1-1.4 1.6-1.6 2.2-1.1 4.8-1.8 7.2-2.6zm-4.6 9.3c.3-1.2 1.1-2.2 2-3 1-.8 2.2-.8 3.4-1.1 2.9-.6 5.8-1.4 8.6-2.5-1.2 1.5-2.3 3.1-3.3 4.8-.5.8-.8 1.7-1.3 2.5-.5.7-1.5 1-2.4 1.4-2 .9-8 2.3-7-2.1zm8.7 5.5c.2-.6.4-1.3.6-1.9.3-.7.5-1.4 1.1-1.8s1.2-.8 1.7-1.3c2.3-1.9 4.1-4.4 5.5-7-.5 1.7-.8 3.5-1.1 5.2-.1.9-.2 1.7-.2 2.6-.1 1.1-.7 1.8-1.4 2.6-1.1 1.4-2.5 2.9-4.1 3.6-.5.2-1.6.5-2.1 0-.4-.5-.2-1.5 0-2zM29 24.4c1.9.1 3.8.3 5.7.6-1 .5-2.1.8-3.2 1.2-.2.1-.5.2-.7.2-.5.1-.4 0-.7-.3-.5-.5-.9-1.1-1.4-1.6 0-.1.2-.1.3-.1zm2.9 6.8c-1.5-1-3-2-4.2-3.3.6-.1 1.4-.4 2-.4.4 0 .4 0 .7.3.2.3.4.5.6.8.7 1 1.4 2 2 3.1-.5-.1-.8-.3-1.1-.5zm5.6-7.9c-2 .2-4.1.2-6.1.2-1 0-2 0-3-.1-.3 0-.9.1-1.2-.2 2.3-1.1 4.6-2.1 7-3.1 2.7-1.1 5.6-2.3 8.5-2.5-.5 1.2-1.3 2.4-2.2 3.4-.6.7-1.9 2.2-3 2.3zm5.8-7.5c0 .3 0 .5-.2.7-.3.2-1 .1-1.3.2-1.1.2-2.1.5-3.2.8-2 .7-4 1.5-6 2.4-1.9.8-3.8 1.7-5.7 2.6 1.3-4.2 4.7-8.2 8.5-10.4 1.6-.9 3.4-1.4 5.2-1 2.2.6 2.9 2.5 2.7 4.7zm-15.9 8.9c.7.3 1.4 1.4 1.9 2-.8.2-2.5.9-2.9 0-.1-.2 0-.8 0-1 0-.5 0-.6.3-.8.2-.1.5-.2.7-.2zm0 7.7c-.4-1.4-.8-2.8-.9-4.2 1.1 1.1 2.4 2.1 3.6 3 .7.5 1.4 1 2.2 1.4.8.5 1.4.7 1.8 1.5.7 1.4 1.3 2.8 1.9 4.3.5 1.3 1.2 2.9 1.2 4.3 0 1.7-1.1 1.8-2.4 1.1-1.3-.8-2.3-2-3.2-3.2-1.9-2.5-3.2-5.3-4.2-8.2zm8.3-6.6c.4-.2.7-.4 1-.3.4 0 .8.2 1.2.3.7.2 1.3.4 2 .6 1.4.5 2.7 1 4 1.7 1.2.7 2.4 1.8 2.5 3.2.1 1.4-.8 2.6-1.9 3.3-2.5 1.5-5.3.4-7.7-.6-.6-.2-1.2-.5-1.8-.8-.6-.4-1-1.3-1.4-2-.8-1.3-1.7-2.6-2.7-3.8 1.8-.5 3.3-1 4.8-1.6zm9.3-4.5c-1 1.1-3 1.3-4.4 1.6.8-.7 1.6-1.5 2.2-2.3.3-.5.6-.9.9-1.5.1-.2.4-1.2.6-1.3.5-.3 1.3.9 1.4 1.3.2.7-.2 1.6-.7 2.2z"/></svg>